<?xml version="1.0" encoding="utf-8"?>
<!-- Generator: Moho 12.2 build 21774 -->
<!DOCTYPE svg PUBLIC "-//W3C//DTD SVG 1.1//EN" "http://www.w3.org/Graphics/SVG/1.1/DTD/svg11.dtd">
<svg version="1.1" id="Frame_0" xmlns="http://www.w3.org/2000/svg" xmlns:xlink="http://www.w3.org/1999/xlink" width="25px" height="25px">
<g id="Planes">
<g id="senior-limon">
<g id="tracks">
<g id="track-1">
<path fill="#000000" fill-rule="evenodd" fill-opacity="0.050980" stroke="none" d="M 3.237 4.523 C 3.500 4.619 3.543 4.950 3.442 5.225 C 3.342 5.500 3.095 5.725 2.832 5.628 C 2.569 5.532 2.526 5.201 2.627 4.926 C 2.728 4.652 2.974 4.427 3.237 4.523 Z"/>
<path fill="#000000" fill-rule="evenodd" fill-opacity="0.050980" stroke="none" d="M 4.237 4.489 C 4.265 4.370 4.380 4.289 4.505 4.315 C 4.650 4.345 4.735 4.490 4.702 4.627 C 4.674 4.746 4.559 4.827 4.434 4.801 C 4.289 4.771 4.205 4.627 4.237 4.489 Z"/>
<path fill="#000000" fill-rule="evenodd" fill-opacity="0.050980" stroke="none" d="M 3.956 5.528 C 3.984 5.409 4.099 5.329 4.225 5.354 C 4.369 5.384 4.454 5.529 4.422 5.666 C 4.394 5.786 4.278 5.866 4.153 5.840 C 4.008 5.811 3.924 5.666 3.956 5.528 Z"/>
<path fill="#000000" fill-rule="evenodd" fill-opacity="0.050980" stroke="none" d="M 3.509 4.738 C 3.537 4.619 3.653 4.539 3.778 4.564 C 3.922 4.594 4.007 4.739 3.975 4.877 C 3.947 4.996 3.831 5.076 3.706 5.051 C 3.562 5.021 3.477 4.876 3.509 4.738 Z"/>
<path fill="#000000" fill-rule="evenodd" fill-opacity="0.050980" stroke="none" d="M 7.753 4.422 C 7.606 4.660 7.776 4.947 8.024 5.101 C 8.273 5.256 8.606 5.281 8.753 5.043 C 8.901 4.805 8.731 4.518 8.483 4.364 C 8.234 4.209 7.901 4.184 7.753 4.422 Z"/>
<path fill="#000000" fill-rule="evenodd" fill-opacity="0.050980" stroke="none" d="M 6.945 5.011 C 6.849 4.934 6.709 4.941 6.626 5.039 C 6.531 5.151 6.553 5.317 6.663 5.406 C 6.759 5.483 6.899 5.475 6.982 5.378 C 7.078 5.265 7.055 5.099 6.945 5.011 Z"/>
<path fill="#000000" fill-rule="evenodd" fill-opacity="0.050980" stroke="none" d="M 7.806 5.657 C 7.710 5.580 7.570 5.587 7.487 5.685 C 7.392 5.797 7.414 5.964 7.524 6.052 C 7.620 6.129 7.760 6.121 7.843 6.024 C 7.939 5.911 7.916 5.745 7.806 5.657 Z"/>
<path fill="#000000" fill-rule="evenodd" fill-opacity="0.050980" stroke="none" d="M 7.672 4.759 C 7.576 4.682 7.436 4.690 7.353 4.787 C 7.257 4.900 7.280 5.066 7.390 5.155 C 7.486 5.231 7.626 5.224 7.709 5.126 C 7.805 5.014 7.782 4.848 7.672 4.759 Z"/>
<path fill="#000000" fill-rule="evenodd" fill-opacity="0.050980" stroke="none" d="M 18.071 4.941 C 18.021 5.214 17.684 5.272 17.400 5.215 C 17.141 5.162 16.882 5.000 16.927 4.751 C 16.977 4.478 17.314 4.420 17.597 4.477 C 17.857 4.530 18.116 4.692 18.071 4.941 Z"/>
<path fill="#000000" fill-rule="evenodd" fill-opacity="0.050980" stroke="none" d="M 18.225 5.789 C 18.335 5.799 18.436 5.878 18.430 5.994 C 18.423 6.135 18.280 6.218 18.145 6.205 C 18.034 6.195 17.934 6.116 17.940 6.001 C 17.947 5.859 18.090 5.777 18.225 5.789 Z"/>
<path fill="#000000" fill-rule="evenodd" fill-opacity="0.050980" stroke="none" d="M 17.162 5.696 C 17.273 5.706 17.373 5.785 17.367 5.900 C 17.360 6.042 17.217 6.124 17.082 6.112 C 16.971 6.102 16.871 6.023 16.877 5.907 C 16.884 5.765 17.027 5.683 17.162 5.696 Z"/>
<path fill="#000000" fill-rule="evenodd" fill-opacity="0.050980" stroke="none" d="M 17.890 5.204 C 18.001 5.214 18.101 5.293 18.095 5.408 C 18.088 5.550 17.945 5.632 17.810 5.620 C 17.699 5.610 17.599 5.531 17.605 5.415 C 17.612 5.273 17.755 5.191 17.890 5.204 Z"/>
<path fill="#000000" fill-rule="evenodd" fill-opacity="0.050980" stroke="none" d="M 21.528 5.613 C 21.265 5.517 21.223 5.186 21.323 4.911 C 21.424 4.637 21.670 4.411 21.933 4.508 C 22.196 4.604 22.239 4.935 22.138 5.210 C 22.038 5.485 21.791 5.710 21.528 5.613 Z"/>
<path fill="#000000" fill-rule="evenodd" fill-opacity="0.050980" stroke="none" d="M 20.529 5.647 C 20.501 5.767 20.385 5.847 20.260 5.821 C 20.116 5.792 20.031 5.647 20.063 5.509 C 20.091 5.390 20.207 5.309 20.332 5.335 C 20.476 5.365 20.561 5.510 20.529 5.647 Z"/>
<path fill="#000000" fill-rule="evenodd" fill-opacity="0.050980" stroke="none" d="M 20.809 4.608 C 20.781 4.727 20.666 4.808 20.541 4.782 C 20.396 4.752 20.312 4.607 20.344 4.470 C 20.372 4.351 20.487 4.270 20.612 4.296 C 20.757 4.326 20.842 4.470 20.809 4.608 Z"/>
<path fill="#000000" fill-rule="evenodd" fill-opacity="0.050980" stroke="none" d="M 21.256 5.398 C 21.228 5.517 21.113 5.598 20.988 5.572 C 20.843 5.542 20.758 5.397 20.791 5.260 C 20.819 5.140 20.934 5.060 21.059 5.086 C 21.204 5.115 21.288 5.260 21.256 5.398 Z"/>
</g>
<g id="track-0">
<path fill="#000000" fill-rule="evenodd" fill-opacity="0.149020" stroke="none" d="M 8.562 4.142 C 9.358 4.142 10.016 4.797 10.016 5.628 C 10.016 6.459 9.358 7.114 8.562 7.114 C 7.765 7.114 7.107 6.459 7.107 5.628 C 7.107 4.797 7.765 4.142 8.562 4.142 Z"/>
<path fill="#000000" fill-rule="evenodd" fill-opacity="0.149020" stroke="none" d="M 15.422 1.423 C 16.659 1.423 17.351 2.175 17.351 2.909 C 17.351 3.643 16.659 4.395 15.422 4.395 C 14.186 4.395 13.494 3.643 13.494 2.909 C 13.494 2.175 14.186 1.423 15.422 1.423 Z"/>
<path fill="#000000" fill-rule="evenodd" fill-opacity="0.149020" stroke="none" d="M 16.434 11.856 C 15.698 11.856 15.138 12.423 15.138 13.089 C 15.138 13.755 15.698 14.322 16.434 14.322 C 17.170 14.322 17.730 13.755 17.730 13.089 C 17.730 12.423 17.170 11.856 16.434 11.856 Z"/>
<path fill="#000000" fill-rule="evenodd" fill-opacity="0.149020" stroke="none" d="M 12.640 20.266 C 13.548 20.266 14.189 20.925 14.189 21.657 C 14.189 22.389 13.548 23.048 12.640 23.048 C 11.733 23.048 11.091 22.389 11.091 21.657 C 11.091 20.925 11.733 20.266 12.640 20.266 Z"/>
<path fill="#000000" fill-rule="evenodd" fill-opacity="0.047059" stroke="none" d="M 12.094 6.012 C 13.541 5.602 14.422 7.143 15.071 8.572 C 16.334 11.349 17.384 15.576 14.525 16.181 C 12.063 16.701 11.343 13.272 10.941 10.676 C 10.646 8.777 10.324 6.514 12.094 6.012 Z"/>
<path fill="#000000" fill-rule="evenodd" fill-opacity="0.047059" stroke="none" d="M 9.852 13.722 C 8.598 13.272 7.529 14.293 6.875 15.520 C 5.864 17.415 5.467 20.217 7.421 20.862 C 9.338 21.495 10.629 19.071 11.006 16.997 C 11.254 15.631 11.103 14.172 9.852 13.722 Z"/>
<path fill="#000000" fill-rule="evenodd" fill-opacity="0.047059" stroke="none" d="M 16.873 11.017 C 15.655 11.471 14.550 10.576 13.896 9.387 C 12.957 7.679 12.687 5.179 14.442 4.542 C 16.248 3.888 17.661 6.076 18.027 8.048 C 18.260 9.300 18.017 10.591 16.873 11.017 Z"/>
<path fill="#000000" fill-rule="evenodd" fill-opacity="0.149020" stroke="none" d="M 5.735 12.987 C 6.642 12.987 7.284 13.647 7.284 14.378 C 7.284 15.110 6.642 15.770 5.735 15.770 C 4.827 15.770 4.186 15.110 4.186 14.378 C 4.186 13.647 4.827 12.987 5.735 12.987 Z"/>
<path fill="#000000" fill-rule="evenodd" fill-opacity="0.149020" stroke="none" d="M 17.170 16.873 C 18.078 16.873 18.720 17.532 18.720 18.264 C 18.720 18.996 18.078 19.655 17.170 19.655 C 16.263 19.655 15.621 18.996 15.621 18.264 C 15.621 17.532 16.263 16.873 17.170 16.873 Z"/>
<path fill="#000000" fill-rule="evenodd" fill-opacity="0.149020" stroke="none" d="M 20.927 12.477 C 21.724 12.477 22.381 13.131 22.381 13.963 C 22.381 14.794 21.724 15.449 20.927 15.449 C 20.131 15.449 19.473 14.794 19.473 13.963 C 19.473 13.131 20.131 12.477 20.927 12.477 Z"/>
<path fill="#000000" fill-rule="evenodd" fill-opacity="0.149020" stroke="none" d="M 3.916 6.806 C 4.713 6.806 5.370 7.461 5.370 8.292 C 5.370 9.124 4.713 9.778 3.916 9.778 C 3.120 9.778 2.462 9.124 2.462 8.292 C 2.462 7.461 3.120 6.806 3.916 6.806 Z"/>
</g>
</g>
</g>
</g>
</svg>
