<?xml version="1.0" encoding="utf-8"?>
<!-- Generator: Moho 12.2 build 21774 -->
<!DOCTYPE svg PUBLIC "-//W3C//DTD SVG 1.1//EN" "http://www.w3.org/Graphics/SVG/1.1/DTD/svg11.dtd">
<svg version="1.1" id="Frame_0" xmlns="http://www.w3.org/2000/svg" xmlns:xlink="http://www.w3.org/1999/xlink" width="142px" height="142px">
<g id="Planes">
<g id="senior-limon">
<g id="tracks">
<g id="track-1">
<path fill="#000000" fill-rule="evenodd" fill-opacity="0.050980" stroke="none" d="M 18.387 25.690 C 19.882 26.238 20.124 28.118 19.552 29.678 C 18.980 31.238 17.580 32.517 16.086 31.969 C 14.592 31.422 14.350 29.541 14.922 27.981 C 15.493 26.421 16.893 25.143 18.387 25.690 Z"/>
<path fill="#000000" fill-rule="evenodd" fill-opacity="0.050980" stroke="none" d="M 24.065 25.498 C 24.224 24.820 24.879 24.363 25.591 24.509 C 26.412 24.678 26.892 25.500 26.709 26.282 C 26.549 26.960 25.895 27.416 25.183 27.270 C 24.362 27.102 23.882 26.279 24.065 25.498 Z"/>
<path fill="#000000" fill-rule="evenodd" fill-opacity="0.050980" stroke="none" d="M 22.471 31.401 C 22.631 30.723 23.285 30.266 23.997 30.412 C 24.818 30.581 25.298 31.403 25.115 32.185 C 24.955 32.863 24.301 33.319 23.589 33.173 C 22.768 33.005 22.288 32.182 22.471 31.401 Z"/>
<path fill="#000000" fill-rule="evenodd" fill-opacity="0.050980" stroke="none" d="M 19.933 26.915 C 20.092 26.237 20.747 25.780 21.459 25.926 C 22.280 26.094 22.760 26.917 22.576 27.699 C 22.417 28.376 21.763 28.833 21.051 28.687 C 20.230 28.519 19.750 27.696 19.933 26.915 Z"/>
<path fill="#000000" fill-rule="evenodd" fill-opacity="0.050980" stroke="none" d="M 44.039 25.115 C 43.199 26.467 44.167 28.098 45.578 28.975 C 46.989 29.852 48.879 29.997 49.719 28.646 C 50.559 27.294 49.592 25.663 48.181 24.786 C 46.770 23.909 44.880 23.764 44.039 25.115 Z"/>
<path fill="#000000" fill-rule="evenodd" fill-opacity="0.050980" stroke="none" d="M 39.448 28.460 C 38.905 28.024 38.108 28.068 37.637 28.621 C 37.094 29.259 37.222 30.203 37.848 30.706 C 38.391 31.142 39.187 31.099 39.658 30.545 C 40.202 29.907 40.073 28.963 39.448 28.460 Z"/>
<path fill="#000000" fill-rule="evenodd" fill-opacity="0.050980" stroke="none" d="M 44.338 32.130 C 43.796 31.694 42.999 31.737 42.528 32.291 C 41.985 32.929 42.113 33.873 42.739 34.375 C 43.282 34.811 44.078 34.768 44.549 34.215 C 45.092 33.577 44.964 32.632 44.338 32.130 Z"/>
<path fill="#000000" fill-rule="evenodd" fill-opacity="0.050980" stroke="none" d="M 43.576 27.032 C 43.033 26.596 42.236 26.639 41.765 27.193 C 41.222 27.831 41.350 28.775 41.976 29.278 C 42.519 29.714 43.315 29.670 43.787 29.117 C 44.330 28.479 44.201 27.535 43.576 27.032 Z"/>
<path fill="#000000" fill-rule="evenodd" fill-opacity="0.050980" stroke="none" d="M 102.641 28.066 C 102.358 29.616 100.445 29.946 98.833 29.619 C 97.359 29.320 95.887 28.403 96.146 26.985 C 96.429 25.435 98.342 25.105 99.954 25.432 C 101.429 25.731 102.900 26.648 102.641 28.066 Z"/>
<path fill="#000000" fill-rule="evenodd" fill-opacity="0.050980" stroke="none" d="M 103.518 32.881 C 104.145 32.939 104.714 33.387 104.681 34.044 C 104.641 34.850 103.831 35.316 103.061 35.246 C 102.434 35.189 101.865 34.740 101.898 34.083 C 101.938 33.278 102.749 32.811 103.518 32.881 Z"/>
<path fill="#000000" fill-rule="evenodd" fill-opacity="0.050980" stroke="none" d="M 97.481 32.351 C 98.108 32.408 98.677 32.856 98.644 33.513 C 98.604 34.319 97.793 34.785 97.024 34.715 C 96.397 34.658 95.828 34.209 95.861 33.553 C 95.901 32.747 96.711 32.280 97.481 32.351 Z"/>
<path fill="#000000" fill-rule="evenodd" fill-opacity="0.050980" stroke="none" d="M 101.616 29.556 C 102.243 29.613 102.812 30.062 102.779 30.719 C 102.739 31.524 101.929 31.991 101.159 31.921 C 100.532 31.863 99.963 31.415 99.996 30.758 C 100.036 29.953 100.846 29.486 101.616 29.556 Z"/>
<path fill="#000000" fill-rule="evenodd" fill-opacity="0.050980" stroke="none" d="M 122.281 31.884 C 120.786 31.336 120.544 29.456 121.116 27.896 C 121.688 26.336 123.088 25.057 124.582 25.605 C 126.076 26.152 126.318 28.033 125.746 29.593 C 125.175 31.153 123.775 32.432 122.281 31.884 Z"/>
<path fill="#000000" fill-rule="evenodd" fill-opacity="0.050980" stroke="none" d="M 116.603 32.076 C 116.444 32.754 115.789 33.211 115.077 33.065 C 114.256 32.896 113.776 32.074 113.959 31.292 C 114.119 30.614 114.773 30.158 115.485 30.304 C 116.306 30.472 116.786 31.295 116.603 32.076 Z"/>
<path fill="#000000" fill-rule="evenodd" fill-opacity="0.050980" stroke="none" d="M 118.197 26.173 C 118.037 26.851 117.383 27.308 116.671 27.162 C 115.850 26.993 115.370 26.171 115.553 25.389 C 115.713 24.711 116.367 24.255 117.079 24.401 C 117.900 24.569 118.380 25.392 118.197 26.173 Z"/>
<path fill="#000000" fill-rule="evenodd" fill-opacity="0.050980" stroke="none" d="M 120.735 30.660 C 120.576 31.337 119.921 31.794 119.209 31.648 C 118.388 31.480 117.908 30.657 118.092 29.875 C 118.251 29.198 118.905 28.741 119.617 28.887 C 120.438 29.055 120.918 29.878 120.735 30.660 Z"/>
</g>
</g>
</g>
</g>
</svg>
