<?xml version="1.0" encoding="utf-8"?>
<!-- Generator: Moho 12.2 build 21774 -->
<!DOCTYPE svg PUBLIC "-//W3C//DTD SVG 1.1//EN" "http://www.w3.org/Graphics/SVG/1.1/DTD/svg11.dtd">
<svg version="1.1" id="Frame_0" xmlns="http://www.w3.org/2000/svg" xmlns:xlink="http://www.w3.org/1999/xlink" width="30px" height="30px">
<g id="hawk">
<g id="tracks">
<g id="track-0">
<path fill="#000000" fill-rule="evenodd" fill-opacity="0.200000" stroke="none" d="M 6.798 13.131 C 7.366 13.131 8.027 13.648 8.027 15.089 C 8.027 16.529 7.366 17.046 6.798 17.046 C 6.230 17.046 5.569 16.529 5.569 15.089 C 5.569 13.648 6.230 13.131 6.798 13.131 Z"/>
<path fill="#000000" fill-rule="evenodd" fill-opacity="0.200000" stroke="none" d="M 9.904 5.916 C 11.044 5.951 11.628 7.400 12.323 8.083 C 12.960 8.710 14.296 8.968 14.350 10.267 C 14.396 11.366 13.388 11.761 12.849 12.292 C 12.150 12.981 11.310 14.370 10.178 14.180 C 8.627 13.919 8.692 12.121 7.811 10.376 C 7.382 9.527 6.851 9.001 6.982 8.360 C 7.212 7.241 8.567 5.875 9.904 5.916 Z"/>
<path fill="#000000" fill-rule="evenodd" fill-opacity="0.200000" stroke="none" d="M 23.123 13.845 C 23.809 14.424 24.347 17.748 23.918 18.678 C 23.458 19.677 22.474 19.714 21.778 20.010 C 20.875 20.394 19.592 21.362 18.600 20.784 C 17.586 20.192 18.221 18.926 17.701 17.562 C 17.224 16.313 16.011 15.662 16.354 14.810 C 17.120 12.907 21.288 12.297 23.123 13.845 Z"/>
<path fill="#000000" fill-rule="evenodd" fill-opacity="0.200000" stroke="none" d="M 14.830 2.969 C 15.207 2.969 15.704 3.472 15.704 4.862 C 15.704 6.252 15.207 6.756 14.830 6.756 C 14.453 6.756 13.956 6.252 13.956 4.862 C 13.956 3.472 14.453 2.969 14.830 2.969 Z"/>
<path fill="#000000" fill-rule="evenodd" fill-opacity="0.200000" stroke="none" d="M 13.956 16.893 C 14.722 16.893 15.355 17.522 15.355 18.320 C 15.355 19.118 14.722 19.747 13.956 19.747 C 13.190 19.747 12.558 19.118 12.558 18.320 C 12.558 17.522 13.190 16.893 13.956 16.893 Z"/>
<path fill="#000000" fill-rule="evenodd" fill-opacity="0.200000" stroke="none" d="M 10.166 20.232 C 11.106 20.232 11.759 20.905 11.759 21.643 C 11.759 22.380 11.106 23.054 10.166 23.054 C 9.225 23.054 8.573 22.380 8.573 21.643 C 8.573 20.905 9.225 20.232 10.166 20.232 Z"/>
<path fill="#000000" fill-rule="evenodd" fill-opacity="0.200000" stroke="none" d="M 18.040 23.873 C 18.923 23.873 19.678 24.618 19.678 25.603 C 19.678 26.587 18.923 27.332 18.040 27.332 C 17.157 27.332 16.401 26.587 16.401 25.603 C 16.401 24.618 17.157 23.873 18.040 23.873 Z"/>
<path fill="none" stroke="#000000" stroke-width="4" stroke-opacity="0.050980" stroke-linecap="round" stroke-linejoin="round" d="M 11.468 1.984 C 12.558 3.074 14.659 3.716 16.134 3.885 C 16.938 3.977 18.530 3.484 17.588 2.372 C 17.075 1.766 16.063 2.006 15.447 2.253 C 14.061 2.807 11.535 4.669 11.975 6.481 C 12.447 8.424 16.062 8.463 17.524 8.478 C 18.272 8.486 19.672 8.682 19.543 7.556 C 19.410 6.389 17.995 6.319 17.081 6.346 C 15.236 6.400 9.462 6.824 9.458 9.623 C 9.455 12.388 14.593 13.109 16.466 13.090 C 17.140 13.083 19.130 12.613 18.819 11.508 C 18.619 10.801 16.893 10.631 16.348 10.597 C 14.772 10.496 10.854 11.777 10.256 13.524 C 8.853 17.629 15.933 18.248 18.490 18.263 C 19.227 18.267 21.853 18.128 21.625 16.792 C 21.429 15.642 18.921 15.708 18.130 15.670 C 16.021 15.570 10.872 15.955 10.019 18.606 C 8.764 22.510 16.209 22.071 18.221 21.999 C 19.109 21.967 20.957 21.975 20.896 20.649 C 20.842 19.453 19.152 19.054 18.247 18.879 C 15.471 18.343 12.208 18.945 9.561 19.886 C 8.920 20.114 7.262 20.609 7.063 21.424 C 6.660 23.077 7.925 24.274 9.228 25.002 C 11.820 26.449 14.733 26.912 17.671 26.752 C 18.446 26.710 21.541 26.577 21.541 25.354 "/>
</g>
</g>
</g>
<g id="Planes">
</g>
</svg>
