<?xml version="1.0" encoding="utf-8"?>
<!-- Generator: Moho 12.2 build 21774 -->
<!DOCTYPE svg PUBLIC "-//W3C//DTD SVG 1.1//EN" "http://www.w3.org/Graphics/SVG/1.1/DTD/svg11.dtd">
<svg version="1.1" id="Frame_0" xmlns="http://www.w3.org/2000/svg" xmlns:xlink="http://www.w3.org/1999/xlink" width="84px" height="84px">
<g id="Pilot_(test)">
<g id="Self">
<g id="body">
<g id="hands">
<path fill="#e0d1ca" fill-rule="evenodd" stroke="#000000" stroke-width="1" stroke-linecap="round" stroke-linejoin="round" d="M 17.096 23.441 C 21.033 23.607 23.793 26.114 23.579 28.897 C 23.169 34.258 12.362 40.332 8.089 34.055 C 6.590 31.853 8.788 30.152 9.882 28.616 C 11.580 26.236 12.970 23.267 17.096 23.441 Z"/>
<path fill="#e0d1ca" fill-rule="evenodd" stroke="#000000" stroke-width="1" stroke-linecap="round" stroke-linejoin="round" d="M 66.905 23.439 C 62.967 23.605 60.208 26.112 60.421 28.895 C 60.831 34.256 71.638 40.330 75.911 34.053 C 77.410 31.851 75.213 30.150 74.118 28.614 C 72.420 26.234 71.030 23.265 66.905 23.439 Z"/>
</g>
<g id="body">
<path fill="#48adbc" fill-rule="evenodd" stroke="#000000" stroke-width="2" stroke-linecap="round" stroke-linejoin="round" d="M 42.000 29.664 C 65.444 29.664 69.145 26.251 76.975 33.321 C 79.834 35.904 81.743 43.625 81.078 45.491 C 78.969 51.412 70.121 59.611 42.966 59.871 C 14.601 60.144 5.145 51.666 2.921 45.489 C 2.250 43.625 4.166 35.904 7.025 33.322 C 14.855 26.252 18.556 29.664 42.000 29.664 Z"/>
</g>
</g>
<g id="hat">
<g id="ears">
<path fill="#312c25" fill-rule="evenodd" stroke="#000000" stroke-width="1" stroke-linecap="round" stroke-linejoin="round" d="M 29.248 33.346 C 30.648 34.506 31.449 37.310 31.141 39.102 C 30.889 40.572 29.610 42.671 28.181 43.098 C 26.160 43.702 22.965 42.025 21.724 40.320 C 20.929 39.228 20.636 37.139 21.083 35.864 C 21.561 34.498 23.236 33.003 24.622 32.588 C 25.970 32.185 28.166 32.448 29.248 33.346 Z"/>
<path fill="#312c25" fill-rule="evenodd" stroke="#000000" stroke-width="1" stroke-linecap="round" stroke-linejoin="round" d="M 54.753 33.346 C 53.354 34.506 52.552 37.311 52.860 39.102 C 53.113 40.573 54.392 42.671 55.821 43.098 C 57.841 43.702 61.037 42.025 62.278 40.320 C 63.073 39.228 63.365 37.139 62.919 35.864 C 62.440 34.499 60.765 33.003 59.379 32.588 C 58.032 32.185 55.836 32.448 54.753 33.346 Z"/>
</g>
<g id="hat">
<path fill="#524739" fill-rule="evenodd" stroke="#000000" stroke-width="1" stroke-linecap="round" stroke-linejoin="round" d="M 41.995 51.284 C 47.956 51.286 52.525 47.892 55.083 44.239 C 56.351 42.429 56.888 39.829 56.602 37.030 C 56.442 35.465 55.916 34.113 55.083 33.200 C 52.240 30.083 46.214 28.056 41.995 28.057 C 37.779 28.057 31.762 30.089 28.917 33.200 C 28.082 34.113 27.549 35.463 27.388 37.030 C 27.099 39.830 27.647 42.429 28.917 44.239 C 31.476 47.888 36.037 51.283 41.995 51.284 Z"/>
</g>
<g id="eyes">
<path fill="#889393" fill-rule="evenodd" stroke="#000000" stroke-width="0" stroke-linecap="round" stroke-linejoin="round" d="M 40.351 26.239 C 40.351 26.239 41.485 25.968 41.981 25.974 C 42.525 25.981 43.764 26.316 43.764 26.316 C 43.764 26.316 43.695 27.649 43.695 27.649 C 43.694 27.649 40.285 27.666 40.285 27.666 C 40.285 27.666 40.351 26.239 40.351 26.239 Z"/>
<path fill="#e6ffff" fill-rule="evenodd" stroke="#000000" stroke-width="1" stroke-linecap="round" stroke-linejoin="round" d="M 33.472 27.116 C 33.472 27.116 35.675 26.332 36.655 26.134 C 37.717 25.920 40.248 25.784 40.249 25.784 C 40.249 25.784 41.149 26.196 41.261 26.563 C 41.372 26.923 40.870 27.756 40.870 27.756 C 40.869 27.756 38.311 28.087 37.250 28.386 C 36.213 28.678 33.910 29.706 33.910 29.707 C 33.910 29.706 32.916 29.033 32.835 28.571 C 32.753 28.102 33.472 27.116 33.472 27.116 Z"/>
<path fill="#e6ffff" fill-rule="evenodd" stroke="#000000" stroke-width="1" stroke-linecap="round" stroke-linejoin="round" d="M 50.530 27.118 C 50.530 27.118 48.327 26.334 47.348 26.136 C 46.286 25.922 43.754 25.785 43.753 25.785 C 43.753 25.785 42.853 26.198 42.741 26.564 C 42.630 26.925 43.133 27.758 43.133 27.758 C 43.133 27.758 45.692 28.089 46.753 28.387 C 47.790 28.680 50.092 29.708 50.092 29.708 C 50.093 29.708 51.086 29.035 51.167 28.573 C 51.250 28.104 50.530 27.118 50.530 27.118 Z"/>
</g>
<g id="lines">
<path fill="none" stroke="#322b23" stroke-width="1" stroke-linecap="round" stroke-linejoin="round" d="M 37.176 29.466 C 36.468 31.442 35.388 34.066 35.092 36.144 C 34.739 38.617 34.890 42.003 35.298 44.467 C 35.565 46.080 36.869 49.687 36.869 49.688 M 41.989 28.740 C 41.989 36.028 41.989 43.315 41.989 50.603 "/>
<path fill="none" stroke="#322b23" stroke-width="1" stroke-linecap="round" stroke-linejoin="round" d="M 46.825 29.464 C 47.533 31.440 48.612 34.064 48.909 36.142 C 49.261 38.614 49.111 42.000 48.702 44.464 C 48.435 46.078 47.132 49.685 47.132 49.686 M 42.012 28.738 C 42.012 36.025 42.012 43.313 42.012 50.600 "/>
</g>
</g>
</g>
</g>
</svg>
