<?xml version="1.0" encoding="utf-8"?>
<!-- Generator: Moho 12.2 build 21774 -->
<!DOCTYPE svg PUBLIC "-//W3C//DTD SVG 1.1//EN" "http://www.w3.org/Graphics/SVG/1.1/DTD/svg11.dtd">
<svg version="1.1" id="Frame_0" xmlns="http://www.w3.org/2000/svg" xmlns:xlink="http://www.w3.org/1999/xlink" width="142px" height="142px">
<g id="Planes">
<g id="crop-duster">
<g id="tracks">
</g>
<g id="self">
<g id="wings_2">
<path fill="#c1d192" fill-rule="evenodd" stroke="#484e36" stroke-width="3" stroke-linecap="round" stroke-linejoin="round" d="M 11.777 44.552 C 13.535 40.511 24.887 37.930 24.888 37.929 C 24.897 37.929 117.097 37.927 117.107 37.927 C 117.108 37.928 128.465 40.511 130.223 44.554 C 132.262 49.247 128.739 57.260 125.051 60.806 C 119.620 66.027 100.578 66.411 100.576 66.411 C 100.570 66.411 41.428 66.411 41.422 66.411 C 41.420 66.411 22.378 66.027 16.948 60.806 C 13.259 57.259 9.737 49.245 11.777 44.552 Z"/>
</g>
<g id="frame">
<path fill="#8e9a6a" fill-rule="evenodd" stroke="#484e36" stroke-width="3" stroke-linecap="round" stroke-linejoin="round" d="M 70.812 7.071 C 72.087 7.059 78.545 9.549 80.526 12.179 C 83.219 15.756 83.112 26.874 83.113 26.875 C 83.113 26.877 83.148 65.846 83.148 65.850 C 83.148 65.855 78.221 120.455 78.221 120.455 C 78.219 120.455 63.779 120.454 63.778 120.454 C 63.777 120.454 58.849 65.855 58.849 65.850 C 58.849 65.846 58.886 26.882 58.886 26.878 C 58.886 26.876 58.804 15.774 61.472 12.178 C 63.375 9.614 69.574 7.083 70.812 7.071 Z"/>
</g>
<g id="tail">
<path fill="#c1d192" fill-rule="evenodd" stroke="#484e36" stroke-width="3" stroke-linecap="round" stroke-linejoin="round" d="M 91.997 116.599 C 91.997 116.599 97.988 118.184 99.202 120.288 C 99.996 121.664 100.066 124.251 99.202 125.585 C 96.403 129.905 82.617 129.974 82.616 129.974 C 82.613 129.974 59.386 129.972 59.383 129.972 C 59.382 129.972 45.598 129.903 42.799 125.585 C 41.935 124.252 42.004 121.665 42.798 120.289 C 44.012 118.185 50.004 116.600 50.004 116.599 C 50.006 116.599 91.995 116.599 91.997 116.599 Z"/>
<path fill="#c1d192" fill-rule="evenodd" stroke="#484e36" stroke-width="2" stroke-linecap="round" stroke-linejoin="round" d="M 69.139 114.180 C 69.139 114.180 72.862 114.180 72.862 114.180 C 72.862 114.183 72.862 138.346 72.862 138.349 C 72.862 138.349 71.648 139.492 70.991 139.491 C 70.338 139.489 69.139 138.349 69.139 138.349 C 69.139 138.346 69.139 114.183 69.139 114.180 Z"/>
</g>
<g id="propellers">
<path fill="none" stroke="#8e9a6a" stroke-width="4" stroke-linecap="round" stroke-linejoin="round" d="M 71.000 5.947 C 71.000 5.350 71.000 4.156 71.000 4.156 "/>
<path fill="none" stroke="#858d6f" stroke-width="3" stroke-linecap="round" stroke-linejoin="round" d="M 70.997 6.481 C 77.821 6.483 84.645 6.486 91.468 6.488 M 50.531 6.491 C 57.353 6.488 64.175 6.484 70.997 6.481 "/>
</g>
<g id="wings">
<path fill="#c1d192" fill-rule="evenodd" stroke="#484e36" stroke-width="3" stroke-linecap="round" stroke-linejoin="round" d="M 4.256 30.851 C 6.236 26.296 19.030 23.387 19.032 23.386 C 19.042 23.386 122.955 23.384 122.965 23.384 C 122.966 23.385 135.766 26.296 137.747 30.853 C 140.046 36.141 136.075 45.173 131.918 49.169 C 125.798 55.053 104.337 55.485 104.335 55.486 C 104.328 55.486 37.673 55.486 37.667 55.486 C 37.664 55.485 16.203 55.053 10.083 49.169 C 5.926 45.172 1.956 36.139 4.256 30.851 Z"/>
</g>
</g>
</g>
</g>
</svg>
