<?xml version="1.0" encoding="utf-8"?>
<!-- Generator: Moho 12.2 build 21774 -->
<!DOCTYPE svg PUBLIC "-//W3C//DTD SVG 1.1//EN" "http://www.w3.org/Graphics/SVG/1.1/DTD/svg11.dtd">
<svg version="1.1" id="Frame_0" xmlns="http://www.w3.org/2000/svg" xmlns:xlink="http://www.w3.org/1999/xlink" width="142px" height="142px">
<g id="hawk">
<g id="tracks">
</g>
<g id="self">
<g id="frame">
<path fill="#7793b4" fill-rule="evenodd" stroke="#475565" stroke-width="3" stroke-linecap="round" stroke-linejoin="round" d="M 71.000 121.893 C 70.999 121.894 57.290 130.731 57.289 130.732 C 57.287 130.732 42.191 132.745 42.189 132.745 C 42.189 132.745 39.337 129.390 39.337 129.390 C 39.338 129.388 46.551 111.607 46.551 111.606 C 46.547 111.604 1.760 90.972 1.756 90.970 C 1.756 90.968 1.924 77.717 1.924 77.715 C 1.928 77.716 49.019 84.223 49.024 84.224 C 49.024 84.223 49.133 74.340 49.133 74.339 C 49.133 74.339 41.337 74.202 41.336 74.202 C 41.336 74.201 41.336 66.953 41.336 66.952 C 41.337 66.951 54.878 57.377 54.879 57.376 C 54.880 57.373 57.216 37.697 59.667 29.606 C 62.098 21.580 70.997 4.055 70.999 4.053 C 71.000 4.055 79.903 21.582 82.335 29.608 C 84.786 37.699 87.122 57.375 87.123 57.378 C 87.124 57.379 100.664 66.953 100.666 66.954 C 100.666 66.955 100.666 74.204 100.666 74.204 C 100.665 74.204 92.869 74.341 92.868 74.341 C 92.868 74.342 92.978 84.225 92.978 84.226 C 92.982 84.226 140.073 77.718 140.078 77.718 C 140.078 77.719 140.246 90.970 140.246 90.972 C 140.241 90.974 95.455 111.606 95.450 111.608 C 95.451 111.610 102.664 129.390 102.665 129.392 C 102.664 129.392 99.813 132.747 99.812 132.747 C 99.811 132.747 84.714 130.734 84.713 130.734 C 84.713 130.734 71.001 121.894 71.000 121.893 Z"/>
</g>
<g id="details">
<path fill="#77a3d5" fill-rule="evenodd" stroke="#475565" stroke-width="1" stroke-linecap="round" stroke-linejoin="round" d="M 75.835 46.164 C 74.772 42.314 71.000 33.762 71.000 33.760 C 71.000 33.762 67.227 42.316 66.164 46.166 C 65.116 49.961 63.977 59.106 63.977 59.107 C 68.658 59.107 73.340 59.107 78.022 59.108 C 78.022 59.106 76.883 49.960 75.835 46.164 Z"/>
<path fill="none" stroke="#5c84b0" stroke-width="1" stroke-linecap="butt" stroke-linejoin="round" d="M 63.977 59.107 C 68.658 59.107 73.340 59.107 78.022 59.108 "/>
<path fill="#5c84b0" fill-rule="evenodd" stroke="#475565" stroke-width="1" stroke-linecap="round" stroke-linejoin="round" d="M 63.977 59.107 C 68.658 59.107 73.340 59.107 78.022 59.108 C 78.022 59.109 77.905 70.144 76.801 74.706 C 75.738 79.095 71.001 88.592 71.000 88.594 C 70.999 88.592 66.259 79.095 65.197 74.706 C 64.092 70.144 63.977 59.109 63.977 59.107 Z"/>
<path fill="#5c84b0" fill-rule="evenodd" stroke="#475565" stroke-width="1" stroke-linecap="round" stroke-linejoin="round" d="M 68.458 132.564 C 68.458 132.562 68.780 117.356 68.941 109.752 C 68.941 109.751 69.280 101.810 68.671 98.484 C 68.243 96.144 66.123 90.977 66.122 90.976 C 66.122 90.977 62.105 95.923 61.340 98.481 C 60.371 101.721 61.337 109.754 61.337 109.755 C 61.337 117.358 61.337 132.562 61.337 132.564 C 61.338 132.564 68.457 132.564 68.458 132.564 Z"/>
<path fill="#77a3d5" fill-rule="evenodd" stroke="#475565" stroke-width="1" stroke-linecap="round" stroke-linejoin="round" d="M 54.706 111.380 C 54.706 111.380 57.380 111.380 57.380 111.380 C 57.380 111.383 57.380 138.813 57.380 138.816 C 57.380 138.816 54.706 138.816 54.706 138.816 C 54.706 138.813 54.706 111.383 54.706 111.380 Z"/>
<path fill="#5c84b0" fill-rule="evenodd" stroke="#475565" stroke-width="1" stroke-linecap="round" stroke-linejoin="round" d="M 73.538 132.567 C 73.538 132.565 73.216 117.359 73.055 109.755 C 73.056 109.754 72.717 101.814 73.325 98.487 C 73.753 96.148 75.874 90.980 75.874 90.980 C 75.874 90.980 79.891 95.927 80.657 98.484 C 81.626 101.725 80.660 109.757 80.660 109.758 C 80.660 117.361 80.660 132.565 80.660 132.567 C 80.659 132.567 73.539 132.567 73.538 132.567 Z"/>
<path fill="#77a3d5" fill-rule="evenodd" stroke="#475565" stroke-width="1" stroke-linecap="round" stroke-linejoin="round" d="M 87.291 111.383 C 87.291 111.383 84.617 111.383 84.616 111.383 C 84.616 111.386 84.616 138.816 84.616 138.819 C 84.617 138.819 87.291 138.819 87.291 138.819 C 87.291 138.816 87.291 111.386 87.291 111.383 Z"/>
</g>
</g>
</g>
<g id="Planes">
</g>
</svg>
