<?xml version="1.0" encoding="utf-8"?>
<!-- Generator: Moho 12.2 build 21774 -->
<!DOCTYPE svg PUBLIC "-//W3C//DTD SVG 1.1//EN" "http://www.w3.org/Graphics/SVG/1.1/DTD/svg11.dtd">
<svg version="1.1" id="Frame_0" xmlns="http://www.w3.org/2000/svg" xmlns:xlink="http://www.w3.org/1999/xlink" width="35px" height="35px">
<g id="Planes">
<g id="crop-duster">
<g id="tracks">
<g id="track-0">
<path fill="#7f8e93" fill-rule="evenodd" fill-opacity="0.149020" stroke="none" d="M 2.831 29.775 C 2.624 30.629 3.564 32.353 4.432 32.225 C 5.563 32.058 5.972 29.055 4.998 28.456 C 4.384 28.078 3.009 29.035 2.831 29.775 Z"/>
<path fill="#7f8e93" fill-rule="evenodd" fill-opacity="0.149020" stroke="none" d="M 28.914 23.509 C 28.788 24.146 29.599 24.951 29.502 25.593 C 29.254 27.243 24.935 28.765 26.081 29.976 C 27.138 31.093 29.292 28.339 30.518 27.411 C 31.639 26.562 33.483 25.498 33.885 24.150 C 34.338 22.633 34.206 19.342 32.656 19.019 C 31.365 18.750 30.658 21.359 29.770 22.333 C 29.487 22.643 28.999 23.081 28.914 23.509 Z"/>
<path fill="#a1b3b9" fill-rule="evenodd" fill-opacity="0.149020" stroke="none" d="M 28.085 3.801 C 28.541 3.054 28.665 1.151 29.532 1.268 C 30.615 1.414 30.467 3.921 29.954 4.886 C 29.359 6.008 26.915 7.773 26.155 6.756 C 25.545 5.940 27.533 4.704 28.085 3.801 Z"/>
<path fill="#a1b3b9" fill-rule="evenodd" fill-opacity="0.149020" stroke="none" d="M 22.597 2.112 C 20.804 -0.056 15.499 1.252 13.256 2.951 C 12.006 3.897 12.232 6.640 11.078 7.701 C 9.978 8.713 7.599 8.521 6.399 9.413 C 4.543 10.794 1.945 15.708 1.944 15.709 C 2.500 14.605 3.937 14.514 4.732 13.909 C 5.870 13.043 6.341 11.226 7.953 10.952 C 9.601 10.670 11.818 13.423 13.252 12.668 C 15.342 11.569 13.662 6.511 15.594 5.155 C 16.451 4.554 18.053 4.726 19.078 4.940 C 20.087 5.151 21.284 5.927 22.138 6.505 C 22.138 6.505 23.441 3.134 22.597 2.112 Z"/>
<path fill="#a1b3b9" fill-rule="evenodd" fill-opacity="0.149020" stroke="none" d="M 19.770 12.068 C 18.737 12.458 18.001 13.974 17.073 14.572 C 16.778 14.763 16.354 14.862 15.922 14.963 C 15.283 15.112 14.629 15.263 14.377 15.727 C 13.664 17.041 14.586 19.504 15.661 20.543 C 16.824 21.666 19.503 22.467 20.925 21.698 C 21.942 21.149 21.909 19.406 22.212 18.033 C 22.338 17.464 22.519 16.962 22.851 16.626 C 23.690 15.780 26.059 16.188 26.511 15.085 C 26.827 14.313 26.236 13.007 25.612 12.453 C 24.220 11.218 21.413 11.448 19.770 12.068 Z"/>
<path fill="#7f8e93" fill-rule="evenodd" fill-opacity="0.149020" stroke="none" d="M 11.984 28.345 C 11.706 29.140 9.344 29.305 9.344 29.305 C 12.260 30.490 15.970 30.678 18.607 30.529 C 21.050 30.391 25.019 29.607 26.155 27.440 C 26.155 27.440 21.861 27.346 20.058 27.013 C 19.227 26.859 18.081 26.660 17.351 26.234 C 16.135 25.525 15.470 23.156 14.094 22.857 C 13.416 22.710 12.456 23.141 11.878 23.525 C 11.202 23.975 10.223 24.820 10.174 25.631 C 10.116 26.608 12.306 27.421 11.984 28.345 Z"/>
<path fill="#a1b3b9" fill-rule="evenodd" fill-opacity="0.149020" stroke="none" d="M 7.240 19.444 C 6.963 18.885 5.603 18.163 5.602 18.163 C 5.190 19.765 5.641 21.864 5.435 23.485 C 5.306 24.491 4.789 25.305 5.018 25.985 C 5.544 27.553 7.400 28.515 9.344 29.305 C 9.344 29.305 11.706 29.140 11.984 28.345 C 12.306 27.421 10.116 26.608 10.174 25.631 C 10.223 24.820 11.202 23.975 11.878 23.525 C 11.878 23.525 8.015 23.613 7.170 22.434 C 6.648 21.705 7.638 20.248 7.240 19.444 Z"/>
<path fill="#7f8e93" fill-rule="evenodd" fill-opacity="0.149020" stroke="none" d="M 2.335 20.988 C 2.820 22.079 5.434 23.485 5.435 23.485 C 5.641 21.864 5.190 19.765 5.602 18.163 C 6.048 16.432 6.797 15.259 6.797 15.259 C 7.229 13.992 7.953 10.952 7.953 10.952 C 6.341 11.226 5.870 13.043 4.732 13.909 C 3.937 14.514 2.500 14.605 1.944 15.709 C 1.107 17.371 1.724 19.614 2.335 20.988 Z"/>
<path fill="#7f8e93" fill-rule="evenodd" fill-opacity="0.149020" stroke="none" d="M 24.135 22.295 C 24.312 20.903 22.212 18.033 22.212 18.033 C 22.338 17.464 22.519 16.962 22.851 16.626 C 23.690 15.780 26.059 16.188 26.511 15.085 C 26.827 14.313 26.236 13.007 25.612 12.453 C 24.220 11.218 21.413 11.448 19.770 12.068 C 18.737 12.458 18.001 13.974 17.073 14.572 C 16.778 14.763 16.354 14.862 15.922 14.963 C 15.922 14.962 15.594 13.277 15.861 12.631 C 16.440 11.234 19.221 10.847 19.755 9.432 C 20.236 8.157 19.078 4.941 19.078 4.940 C 20.087 5.151 21.284 5.927 22.138 6.505 C 23.693 7.558 25.401 9.432 26.793 10.694 C 28.204 11.972 31.190 13.090 31.479 14.971 C 31.945 17.991 26.318 20.353 25.673 23.340 C 25.411 24.550 26.730 26.343 26.155 27.440 C 26.155 27.440 21.861 27.346 20.058 27.013 C 20.059 27.012 23.900 24.151 24.135 22.295 Z"/>
<path fill="#7f8e93" fill-rule="evenodd" fill-opacity="0.149020" stroke="none" d="M 24.135 22.295 C 24.312 20.903 22.212 18.033 22.212 18.033 C 21.909 19.406 21.942 21.149 20.925 21.698 C 19.503 22.467 16.824 21.666 15.661 20.543 C 14.586 19.504 13.664 17.041 14.377 15.727 C 14.629 15.263 15.283 15.112 15.922 14.963 C 15.922 14.962 15.594 13.277 15.861 12.631 C 16.440 11.234 19.221 10.847 19.755 9.432 C 20.236 8.157 19.078 4.941 19.078 4.940 C 18.053 4.726 16.451 4.554 15.594 5.155 C 13.662 6.511 15.342 11.569 13.252 12.668 C 11.818 13.423 9.601 10.670 7.953 10.952 C 7.953 10.952 7.229 13.992 6.797 15.259 C 6.797 15.259 6.048 16.432 5.602 18.163 C 5.603 18.163 6.963 18.885 7.240 19.444 C 7.638 20.248 6.648 21.705 7.170 22.434 C 8.015 23.613 11.878 23.525 11.878 23.525 C 12.456 23.141 13.416 22.710 14.094 22.857 C 15.470 23.156 16.135 25.525 17.351 26.234 C 18.081 26.660 19.227 26.859 20.058 27.013 C 20.059 27.012 23.900 24.151 24.135 22.295 Z"/>
<path fill="none" stroke="#a1b3b9" stroke-width="1" stroke-opacity="0.149020" stroke-linecap="round" stroke-linejoin="round" d="M 8.654 20.716 C 8.655 20.715 11.128 20.332 11.617 19.506 C 12.139 18.625 11.194 16.120 11.194 16.120 "/>
<path fill="none" stroke="#a1b3b9" stroke-width="1" stroke-opacity="0.149020" stroke-linecap="round" stroke-linejoin="round" d="M 19.045 28.958 C 19.044 28.957 17.726 27.717 17.000 27.583 C 16.055 27.409 13.898 28.377 13.897 28.377 "/>
<path fill="#7f8e93" fill-rule="evenodd" fill-opacity="0.149020" stroke="none" d="M 4.174 2.520 C 4.380 3.007 5.613 3.348 5.895 2.901 C 6.195 2.425 5.242 1.387 4.685 1.468 C 4.357 1.516 4.038 2.197 4.174 2.520 Z"/>
<path fill="#a1b3b9" fill-rule="evenodd" fill-opacity="0.149020" stroke="none" d="M 4.360 8.260 C 3.995 8.857 3.896 10.378 3.203 10.284 C 2.338 10.167 2.456 8.164 2.866 7.393 C 3.342 6.497 5.294 5.086 5.901 5.899 C 6.389 6.551 4.800 7.539 4.360 8.260 Z"/>
<path fill="#7f8e93" fill-rule="evenodd" fill-opacity="0.149020" stroke="none" d="M 15.000 30.633 C 14.520 30.590 13.990 31.252 13.508 31.231 C 12.271 31.178 11.466 31.293 12.247 32.124 C 12.962 32.885 13.893 34.162 14.919 34.352 C 16.074 34.566 18.493 34.209 18.608 33.040 C 18.705 32.066 16.724 31.750 15.935 31.171 C 15.684 30.987 15.322 30.662 15.000 30.633 Z"/>
</g>
</g>
</g>
</g>
</svg>
